<?xml version="1.0" encoding="UTF-8" standalone="no"?>
<!-- Generated by IcoMoon.io -->

<svg
   xmlns:dc="http://purl.org/dc/elements/1.1/"
   xmlns:cc="http://creativecommons.org/ns#"
   xmlns:rdf="http://www.w3.org/1999/02/22-rdf-syntax-ns#"
   xmlns:svg="http://www.w3.org/2000/svg"
   xmlns="http://www.w3.org/2000/svg"
   xmlns:sodipodi="http://sodipodi.sourceforge.net/DTD/sodipodi-0.dtd"
   xmlns:inkscape="http://www.inkscape.org/namespaces/inkscape"
   version="1.1"
   width="11.666012"
   height="8.1660004"
   viewBox="0 0 11.666012 8.1660004"
   id="svg2"
   inkscape:version="0.91 r13725"
   sodipodi:docname="hamburger-thin.svg">
  <metadata
     id="metadata10">
    <rdf:RDF>
      <cc:Work
         rdf:about="">
        <dc:format>image/svg+xml</dc:format>
        <dc:type
           rdf:resource="http://purl.org/dc/dcmitype/StillImage" />
        <dc:title></dc:title>
      </cc:Work>
    </rdf:RDF>
  </metadata>
  <defs
     id="defs8" />
  <sodipodi:namedview
     pagecolor="#ffffff"
     bordercolor="#666666"
     borderopacity="1"
     objecttolerance="10"
     gridtolerance="10"
     guidetolerance="10"
     inkscape:pageopacity="0"
     inkscape:pageshadow="2"
     inkscape:window-width="861"
     inkscape:window-height="480"
     id="namedview6"
     showgrid="false"
     fit-margin-top="0"
     fit-margin-left="0"
     fit-margin-right="0"
     fit-margin-bottom="0"
     inkscape:zoom="16.857143"
     inkscape:cx="5.8330058"
     inkscape:cy="4.083"
     inkscape:window-x="0"
     inkscape:window-y="30"
     inkscape:window-maximized="0"
     inkscape:current-layer="svg2" />
  <path
     d="M 0.58300578,0 11.083006,0 q 0.242,0 0.412,0.171 0.17,0.171 0.171,0.412 0.001,0.241 -0.171,0.412 -0.172,0.171 -0.412,0.171 l -10.50000022,0 q -0.242,0 -0.412,-0.171 Q 0.00100578,0.824 5.7803468e-6,0.583 -9.9421965e-4,0.342 0.17100578,0.171 0.34300578,0 0.58300578,0 Z m 0,7 10.50000022,0 q 0.242,0 0.412,0.171 0.17,0.171 0.171,0.412 0.001,0.241 -0.171,0.412 -0.172,0.171 -0.412,0.171 l -10.50000022,0 q -0.242,0 -0.412,-0.171 Q 0.00100578,7.824 5.7803468e-6,7.583 -9.9421965e-4,7.342 0.17100578,7.171 0.34300578,7 0.58300578,7 Z m 0,-3.5 10.50000022,0 q 0.242,0 0.412,0.171 0.17,0.171 0.171,0.412 0.001,0.241 -0.171,0.412 -0.172,0.171 -0.412,0.171 l -10.50000022,0 q -0.242,0 -0.412,-0.171 Q 0.00100578,4.324 5.7803468e-6,4.083 -9.9421965e-4,3.842 0.17100578,3.671 q 0.172,-0.171 0.412,-0.171 z"
     id="path4"
     inkscape:connector-curvature="0"
     style="fill:#444444" />
</svg>
