<?xml version="1.0" encoding="UTF-8" standalone="no"?>
<!-- Generated by IcoMoon.io -->

<svg
   xmlns:dc="http://purl.org/dc/elements/1.1/"
   xmlns:cc="http://creativecommons.org/ns#"
   xmlns:rdf="http://www.w3.org/1999/02/22-rdf-syntax-ns#"
   xmlns:svg="http://www.w3.org/2000/svg"
   xmlns="http://www.w3.org/2000/svg"
   xmlns:sodipodi="http://sodipodi.sourceforge.net/DTD/sodipodi-0.dtd"
   xmlns:inkscape="http://www.inkscape.org/namespaces/inkscape"
   version="1.1"
   width="7.7979999"
   height="7.5479999"
   viewBox="0 0 7.7979999 7.5479999"
   id="svg2"
   inkscape:version="0.91 r13725"
   sodipodi:docname="angle-double-down.svg">
  <metadata
     id="metadata10">
    <rdf:RDF>
      <cc:Work
         rdf:about="">
        <dc:format>image/svg+xml</dc:format>
        <dc:type
           rdf:resource="http://purl.org/dc/dcmitype/StillImage" />
        <dc:title></dc:title>
      </cc:Work>
    </rdf:RDF>
  </metadata>
  <defs
     id="defs8" />
  <sodipodi:namedview
     pagecolor="#ffffff"
     bordercolor="#666666"
     borderopacity="1"
     objecttolerance="10"
     gridtolerance="10"
     guidetolerance="10"
     inkscape:pageopacity="0"
     inkscape:pageshadow="2"
     inkscape:window-width="1600"
     inkscape:window-height="814"
     id="namedview6"
     showgrid="false"
     fit-margin-top="0"
     fit-margin-left="0"
     fit-margin-right="0"
     fit-margin-bottom="0"
     inkscape:zoom="16.857143"
     inkscape:cx="-10.011017"
     inkscape:cy="3.649"
     inkscape:window-x="0"
     inkscape:window-y="30"
     inkscape:window-maximized="1"
     inkscape:current-layer="svg2" />
  <path
     d="m 7.798,3.649 q 0,0.102 -0.078,0.18 L 4.079,7.47 Q 4.001,7.548 3.899,7.548 3.797,7.548 3.719,7.47 L 0.078,3.829 Q 0,3.751 0,3.649 0,3.547 0.078,3.469 L 0.469,3.078 Q 0.547,3 0.649,3 0.751,3 0.829,3.078 l 3.07,3.07 3.07,-3.07 Q 7.047,3 7.149,3 7.251,3 7.329,3.078 L 7.72,3.469 q 0.078,0.078 0.078,0.18 z m 0,-3 q 0,0.102 -0.078,0.18 L 4.079,4.47 Q 4.001,4.548 3.899,4.548 3.797,4.548 3.719,4.47 L 0.078,0.829 Q 0,0.751 0,0.649 0,0.547 0.078,0.469 L 0.469,0.078 Q 0.547,0 0.649,0 0.751,0 0.829,0.078 l 3.07,3.07 3.07,-3.07 Q 7.047,0 7.149,0 7.251,0 7.329,0.078 L 7.72,0.469 q 0.078,0.078 0.078,0.18 z"
     id="path4"
     inkscape:connector-curvature="0" />
</svg>
